<?xml version="1.0" encoding="utf-8"?>
<!-- Svg Vector Icons : http://www.onlinewebfonts.com/icon -->
<!DOCTYPE svg PUBLIC "-//W3C//DTD SVG 1.1//EN" "http://www.w3.org/Graphics/SVG/1.1/DTD/svg11.dtd">
<svg version="1.1" xmlns="http://www.w3.org/2000/svg" xmlns:xlink="http://www.w3.org/1999/xlink" x="0px" y="0px" viewBox="0 0 1000 1000" enable-background="new 0 0 1000 1000" xml:space="preserve">
<metadata> Svg Vector Icons : http://www.onlinewebfonts.com/icon </metadata>
<g><g transform="translate(0.000000,511.000000) scale(0.100000,-0.100000)"><path d="M362.6,3846.9c-120.1-56.2-204.5-150.8-240.3-281.2c-20.4-61.3-25.6-1037.8-20.4-3024.1c7.7-2914.1,7.7-2932,61.3-3001c28.1-38.3,84.4-94.6,122.7-122.7c69-53.7,84.4-53.7,3111-61.3l3039.4-5.1v204.5v204.5H3471H505.7l5.1,2857.9l7.7,2855.4l4493.9,7.7l4491.4,5.1v-2863v-2863H9197h-306.7v-207.1v-204.5l380.9,7.7c416.7,7.7,455,20.4,575.2,184.1c53.7,69,53.7,79.2,53.7,3082.8c0,3003.6,0,3013.8-53.7,3082.9c-28.1,38.3-84.4,94.6-122.7,122.7l-69,53.7l-4593.6,5.1C633.5,3895.4,464.8,3892.9,362.6,3846.9z"/><path d="M1323.7,2668.4v-204.5h3681h3681v204.5v204.5h-3681h-3681V2668.4z"/><path d="M1323.7,1441.4v-204.5h3681h3681v204.5v204.5h-3681h-3681V1441.4z"/><path d="M7548.2,597.9c-28.1-10.2-92-63.9-140.6-115l-89.5-92l-173.8,15.3c-135.5,15.3-184.1,10.2-235.2-23c-92-61.3-143.1-148.3-161-288.9c-17.9-115-25.6-127.8-153.4-194.3c-74.1-40.9-153.4-99.7-173.8-135.5c-58.8-89.5-48.6-237.8,25.6-368.1l63.9-109.9l-66.5-127.8c-117.6-235.2-76.7-373.2,150.8-495.9c130.4-69,135.5-76.7,153.4-207.1c38.3-253.1,143.1-329.8,406.4-301.6l155.9,17.9l127.8-120.1c120.2-112.5,132.9-117.6,242.9-104.8c92,10.2,138,33.2,222.4,117.6l107.3,104.8l184.1-15.3l181.5-17.9l89.5,89.5c71.6,71.6,89.5,115,104.8,230.1c17.9,140.6,20.4,143.1,148.3,201.9c222.4,104.8,281.2,288.9,158.5,498.5L8811-731.4l66.5,125.3c117.6,232.6,69,386-153.4,495.9c-132.9,63.9-135.5,66.5-153.4,209.6c-12.8,107.4-35.8,166.1-89.5,224.9c-69,79.2-79.2,81.8-278.6,81.8c-194.3,0-207.1,5.1-288.9,79.2C7773.2,620.9,7673.5,651.5,7548.2,597.9z M8023.7-15.6c143.2,0,150.8-2.5,163.6-69c28.1-135.5,99.7-242.9,196.8-296.5c63.9-35.8,94.6-69,86.9-94.6c-76.7-232.6-79.2-255.6-30.7-388.6c43.4-127.8,43.4-130.4-2.6-155.9c-102.2-58.8-209.6-194.3-237.7-301.6l-28.1-112.5l-132.9,7.7c-117.6,7.7-150.8-2.5-265.9-79.2c-132.9-89.5-132.9-89.5-178.9-38.3c-79.2,86.9-184.1,127.8-319.5,120.2l-130.4-7.7l-30.7,120.2c-33.2,135.5-109.9,227.5-219.8,273.5c-84.4,35.8-86.9,40.9-35.8,127.8c48.6,84.3,48.6,288.8,0,380.9c-35.8,71.6-33.2,74.1,58.8,132.9c115,76.7,209.6,212.2,209.6,304.2c0,69,2.5,71.6,178.9,81.8c161,7.7,189.2,17.9,258.2,89.5l81.8,79.2l112.5-86.9C7857.5-5.4,7890.8-15.6,8023.7-15.6z"/><path d="M1323.7,214.4V9.9H3471h2147.3v204.5v204.5H3471H1323.7V214.4z"/><path d="M1323.7-1012.6v-204.5H3471h2147.3v204.5v204.5H3471H1323.7V-1012.6z"/><path d="M6691.9-2853.1c0-449.9,7.7-818,15.3-818c7.7,0,219.9,166.2,470.4,370.7s467.8,370.7,483.1,370.7c12.8,0,217.3-155.9,455-347.6c235.2-191.7,444.8-360.4,462.7-375.8c23-17.9,30.7,143.1,30.7,797.5v820.6h-204.5h-204.5v-396.2v-396.2l-268.4,219.8c-189.2,153.4-278.6,212.2-301.6,194.3c-17.9-12.8-140.6-112.5-273.5-219.9l-242.9-196.8l-7.7,398.8l-7.7,396.2h-202h-204.5V-2853.1z"/></g></g>
</svg>